<svg width="177" height="27" viewBox="0 0 177 27" fill="none" xmlns="http://www.w3.org/2000/svg">
<path id="SEUNGGYU" d="M14.1245 19.4717C14.1245 18.5033 13.7827 17.7627 13.0991 17.25C12.4155 16.7259 11.1851 16.179 9.40771 15.6094C7.63037 15.0283 6.22331 14.4587 5.18652 13.9004C2.361 12.3737 0.948242 10.3172 0.948242 7.73096C0.948242 6.38656 1.32422 5.19027 2.07617 4.14209C2.83952 3.08252 3.92757 2.25651 5.34033 1.66406C6.76449 1.07161 8.35954 0.775391 10.1255 0.775391C11.9028 0.775391 13.4865 1.1001 14.8765 1.74951C16.2664 2.38753 17.3431 3.29329 18.1064 4.4668C18.8812 5.6403 19.2686 6.97331 19.2686 8.46582H14.1416C14.1416 7.3265 13.7827 6.44352 13.0649 5.81689C12.3472 5.17887 11.3389 4.85986 10.04 4.85986C8.78678 4.85986 7.81266 5.1276 7.11768 5.66309C6.42269 6.18717 6.0752 6.88216 6.0752 7.74805C6.0752 8.55697 6.47965 9.23486 7.28857 9.78174C8.10889 10.3286 9.31087 10.8413 10.8945 11.3198C13.8112 12.1971 15.936 13.2852 17.269 14.584C18.6021 15.8828 19.2686 17.5007 19.2686 19.4375C19.2686 21.5908 18.4539 23.2827 16.8247 24.5132C15.1955 25.7323 13.0023 26.3418 10.2451 26.3418C8.33105 26.3418 6.58789 25.9943 5.01562 25.2993C3.44336 24.5929 2.24137 23.6302 1.40967 22.4111C0.589355 21.1921 0.179199 19.7793 0.179199 18.1729H5.32324C5.32324 20.9186 6.96387 22.2915 10.2451 22.2915C11.4642 22.2915 12.4155 22.0465 13.0991 21.5566C13.7827 21.0553 14.1245 20.3604 14.1245 19.4717ZM37.7256 15.2163H27.8818V21.8813H39.4346V26H22.7549V1.11719H39.4004V5.27002H27.8818V11.2002H37.7256V15.2163ZM61.2754 1.11719V17.5063C61.2754 20.2293 60.4209 22.3826 58.7119 23.9663C57.0143 25.55 54.6901 26.3418 51.7393 26.3418C48.834 26.3418 46.5269 25.5728 44.8179 24.0347C43.1089 22.4966 42.2373 20.3831 42.2031 17.6943V1.11719H47.3301V17.5405C47.3301 19.1698 47.7174 20.3604 48.4922 21.1123C49.2783 21.8529 50.3607 22.2231 51.7393 22.2231C54.6217 22.2231 56.0858 20.7078 56.1313 17.6772V1.11719H61.2754ZM85.7139 26H80.5869L70.6064 9.62793V26H65.4795V1.11719H70.6064L80.604 17.5234V1.11719H85.7139V26ZM109.879 22.8555C108.956 23.9606 107.652 24.8208 105.965 25.436C104.279 26.0399 102.411 26.3418 100.36 26.3418C98.2065 26.3418 96.3153 25.8747 94.686 24.9404C93.0682 23.9948 91.8149 22.6276 90.9263 20.8389C90.049 19.0501 89.599 16.9481 89.5762 14.5327V12.8408C89.5762 10.3571 89.992 8.20947 90.8237 6.39795C91.6668 4.57503 92.8745 3.18506 94.4468 2.22803C96.0304 1.2596 97.8818 0.775391 100.001 0.775391C102.952 0.775391 105.259 1.48177 106.922 2.89453C108.586 4.2959 109.571 6.34098 109.879 9.02979H104.889C104.661 7.60563 104.154 6.56315 103.368 5.90234C102.593 5.24154 101.522 4.91113 100.155 4.91113C98.4116 4.91113 97.0843 5.56624 96.1729 6.87646C95.2614 8.18669 94.8 10.1349 94.7886 12.7212V14.3105C94.7886 16.9196 95.2842 18.8906 96.2754 20.2236C97.2666 21.5566 98.7192 22.2231 100.633 22.2231C102.559 22.2231 103.932 21.813 104.752 20.9927V16.7031H100.086V12.9263H109.879V22.8555ZM133.736 22.8555C132.813 23.9606 131.509 24.8208 129.823 25.436C128.137 26.0399 126.268 26.3418 124.217 26.3418C122.064 26.3418 120.173 25.8747 118.543 24.9404C116.926 23.9948 115.672 22.6276 114.784 20.8389C113.906 19.0501 113.456 16.9481 113.434 14.5327V12.8408C113.434 10.3571 113.849 8.20947 114.681 6.39795C115.524 4.57503 116.732 3.18506 118.304 2.22803C119.888 1.2596 121.739 0.775391 123.858 0.775391C126.809 0.775391 129.116 1.48177 130.78 2.89453C132.443 4.2959 133.429 6.34098 133.736 9.02979H128.746C128.518 7.60563 128.011 6.56315 127.225 5.90234C126.45 5.24154 125.379 4.91113 124.012 4.91113C122.269 4.91113 120.942 5.56624 120.03 6.87646C119.119 8.18669 118.657 10.1349 118.646 12.7212V14.3105C118.646 16.9196 119.142 18.8906 120.133 20.2236C121.124 21.5566 122.577 22.2231 124.491 22.2231C126.416 22.2231 127.789 21.813 128.609 20.9927V16.7031H123.944V12.9263H133.736V22.8555ZM146.485 12.3281L151.664 1.11719H157.269L149.1 16.9766V26H143.888V16.9766L135.719 1.11719H141.341L146.485 12.3281ZM176.734 1.11719V17.5063C176.734 20.2293 175.88 22.3826 174.171 23.9663C172.473 25.55 170.149 26.3418 167.198 26.3418C164.293 26.3418 161.986 25.5728 160.277 24.0347C158.568 22.4966 157.696 20.3831 157.662 17.6943V1.11719H162.789V17.5405C162.789 19.1698 163.176 20.3604 163.951 21.1123C164.737 21.8529 165.82 22.2231 167.198 22.2231C170.081 22.2231 171.545 20.7078 171.59 17.6772V1.11719H176.734Z" fill="#0C4DA2"/>
</svg>
